<svg width="64" height="56" viewBox="0 0 64 56" xmlns="http://www.w3.org/2000/svg">
  <path d="M63.71 20.29l-6-6A1 1 0 0 0 57 14H46V5a1 1 0 0 0-1-1H33V1a1 1 0 0 0-1-1H14a1 1 0 0 0-1 1v3H1a1 1 0 0 0-1 1v34a3 3 0 0 0 2 2.82V47a1 1 0 0 0 1 1h6.06a9 9 0 0 0 17.88 0h12.12a9 9 0 0 0 17.88 0H62a1 1 0 0 0 .89-.55l1-2A1 1 0 0 0 64 45V21a1 1 0 0 0-.29-.71zM46 16h3v12h-3V16zM15 2h16v2H15V2zM2 39V6h42v32.95A9 9 0 0 0 42.36 40H23.64a9 9 0 0 0-11.29 0H3a1 1 0 0 1-1-1zm7.06 7H4v-4h6.52a8.94 8.94 0 0 0-1.46 4zM18 54a7 7 0 1 1 0-14 7 7 0 0 1 0 14zm21.06-8H26.94a8.94 8.94 0 0 0-1.46-4h15a8.94 8.94 0 0 0-1.42 4zM48 54a7 7 0 1 1 0-14 7 7 0 0 1 0 14zm14-20h-7v2h7v8.76L61.38 46h-4.44A9 9 0 0 0 46 38.23V30h16v4zm0-6H51V16h5.59L62 21.41V28z"/>
  <path d="M51 34h2v2h-2zm-33 9a4 4 0 1 0 0 8 4 4 0 0 0 0-8zm0 6a2 2 0 1 1 0-4 2 2 0 0 1 0 4zm30-6a4 4 0 1 0 0 8 4 4 0 0 0 0-8zm0 6a2 2 0 1 1 0-4 2 2 0 0 1 0 4z"/>
</svg>
